<?xml version="1.0" standalone="no"?><!DOCTYPE svg PUBLIC "-//W3C//DTD SVG 1.1//EN" "http://www.w3.org/Graphics/SVG/1.1/DTD/svg11.dtd"><svg t="1663854317316" class="icon" viewBox="0 0 1024 1024" version="1.1" xmlns="http://www.w3.org/2000/svg" p-id="1000" xmlns:xlink="http://www.w3.org/1999/xlink" width="128" height="128"><path d="M589.5 376.38h-91.84V684h94.94c135.24 0 166.24-102.68 166.24-153.82 0-83.28-53.08-153.8-169.34-153.8zM512 16C238 16 16 238 16 512s222 496 496 496 496-222 496-496S786 16 512 16z m-161.58 721.52h-59.68v-415h59.68z m-29.84-462.28a39.14 39.14 0 1 1 39.14-39.14 39.28 39.28 0 0 1-39.14 39.14zM600 738h-162V322.52h161.2c153.46 0 220.88 109.66 220.88 207.7C820 636.78 736.76 738 600 738z" p-id="1001" data-spm-anchor-id="a313x.7781069.0.i4" class="selected" fill="#A6CE39"></path></svg>